<!--?xml version="1.0" encoding="utf-8"?-->
<!-- Generator: Adobe Illustrator 18.1.1, SVG Export Plug-In . SVG Version: 6.00 Build 0)  -->

<svg version="1.1" id="_x32_" xmlns="http://www.w3.org/2000/svg" xmlns:xlink="http://www.w3.org/1999/xlink" x="0px" y="0px" viewBox="0 0 512 512" style="width: 256px; height: 256px; opacity: 1;" xml:space="preserve">
<style type="text/css">
	.st0{fill:#4B4B4B;}
</style>
<g>
	<path class="st0" d="M49.548,0v512h412.903v-16.516V0H49.548z M429.419,478.968H280.774v-49.548v-49.548h-49.548v49.548v49.548
		H82.58V33.032h346.839V478.968z" style="fill: rgb(75, 75, 75);"></path>
	<rect x="132.129" y="82.581" class="st0" width="49.548" height="49.548" style="fill: rgb(75, 75, 75);"></rect>
	<rect x="231.226" y="82.581" class="st0" width="49.548" height="49.548" style="fill: rgb(75, 75, 75);"></rect>
	<rect x="330.322" y="82.581" class="st0" width="49.548" height="49.548" style="fill: rgb(75, 75, 75);"></rect>
	<rect x="132.129" y="181.678" class="st0" width="49.548" height="49.548" style="fill: rgb(75, 75, 75);"></rect>
	<rect x="231.226" y="181.678" class="st0" width="49.548" height="49.548" style="fill: rgb(75, 75, 75);"></rect>
	<rect x="330.322" y="181.678" class="st0" width="49.548" height="49.548" style="fill: rgb(75, 75, 75);"></rect>
	<rect x="132.129" y="280.774" class="st0" width="49.548" height="49.548" style="fill: rgb(75, 75, 75);"></rect>
	<rect x="231.226" y="280.774" class="st0" width="49.548" height="49.548" style="fill: rgb(75, 75, 75);"></rect>
	<rect x="330.322" y="280.774" class="st0" width="49.548" height="49.548" style="fill: rgb(75, 75, 75);"></rect>
	<rect x="132.129" y="379.871" class="st0" width="49.548" height="49.548" style="fill: rgb(75, 75, 75);"></rect>
	<rect x="330.322" y="379.871" class="st0" width="49.548" height="49.548" style="fill: rgb(75, 75, 75);"></rect>
</g>
</svg>
