<!--?xml version="1.0" encoding="utf-8"?-->
<!-- Generator: Adobe Illustrator 18.1.1, SVG Export Plug-In . SVG Version: 6.00 Build 0)  -->

<svg version="1.1" id="_x32_" xmlns="http://www.w3.org/2000/svg" xmlns:xlink="http://www.w3.org/1999/xlink" x="0px" y="0px" viewBox="0 0 512 512" style="width: 256px; height: 256px; opacity: 1;" xml:space="preserve">
<style type="text/css">
	.st0{fill:#4B4B4B;}
</style>
<g>
	<path class="st0" d="M435.267,285.485c0.105,2.602,0.188,4.985,0.188,7.182c-0.012,49.615-20.057,94.353-52.564,126.895
		c-32.538,32.503-77.272,52.544-126.892,52.56c-49.619-0.016-94.354-20.057-126.892-52.56
		c-32.507-32.542-52.552-77.28-52.563-126.895c0-2.197,0.082-4.58,0.187-7.182l-39.848-1.589c-0.105,2.687-0.218,5.608-0.218,8.77
		C36.677,413.806,134.856,511.984,256,512c121.143-0.016,219.322-98.194,219.334-219.334c0-3.162-0.113-6.083-0.219-8.77
		L435.267,285.485z" style="fill: rgb(75, 75, 75);"></path>
	<path class="st0" d="M489.011,212.62C478.196,93.412,378.032,0,256,0C133.968,0,33.812,93.412,22.989,212.62
		c-12.945,2.018-22.875,13.109-22.875,26.622c0,14.94,12.107,27.044,27.046,27.044h457.68c14.938,0,27.046-12.104,27.046-27.044
		C511.887,225.729,501.956,214.638,489.011,212.62z M312.496,156.611h-37.013v37.02h-38.967v-37.02h-37.012v-38.96h37.012V80.63
		h38.967v37.02h37.013V156.611z" style="fill: rgb(75, 75, 75);"></path>
	<path class="st0" d="M197.996,336.525c0-12.431-10.083-22.517-22.517-22.517c-12.439,0-22.522,10.086-22.522,22.517
		c0,12.439,10.083,22.517,22.522,22.517C187.913,359.042,197.996,348.964,197.996,336.525z" style="fill: rgb(75, 75, 75);"></path>
	<path class="st0" d="M359.046,336.525c0-12.431-10.083-22.517-22.518-22.517c-12.438,0-22.521,10.086-22.521,22.517
		c0,12.439,10.083,22.517,22.521,22.517C348.963,359.042,359.046,348.964,359.046,336.525z" style="fill: rgb(75, 75, 75);"></path>
</g>
</svg>
